<mxfile host="65bd71144e">
    <diagram id="5c6AxjzpulbUdd4eHJt3" name="Page-1">
        <mxGraphModel dx="967" dy="656" grid="1" gridSize="10" guides="1" tooltips="1" connect="1" arrows="1" fold="1" page="1" pageScale="1" pageWidth="827" pageHeight="1169" math="0" shadow="0">
            <root>
                <mxCell id="0"/>
                <mxCell id="1" parent="0"/>
                <mxCell id="8tnM9pRMmCKiPTkGgOxN-26" value="" style="group" parent="1" vertex="1" connectable="0">
                    <mxGeometry x="110" y="90" width="185" height="97" as="geometry"/>
                </mxCell>
                <mxCell id="8tnM9pRMmCKiPTkGgOxN-18" value="" style="rounded=0;whiteSpace=wrap;html=1;fontColor=#404040;strokeColor=#FF7102;fillColor=#FFF;strokeWidth=3;" parent="8tnM9pRMmCKiPTkGgOxN-26" vertex="1">
                    <mxGeometry width="185" height="97" as="geometry"/>
                </mxCell>
                <mxCell id="8tnM9pRMmCKiPTkGgOxN-25" value="" style="group" parent="8tnM9pRMmCKiPTkGgOxN-26" vertex="1" connectable="0">
                    <mxGeometry x="15" y="10" width="157" height="75" as="geometry"/>
                </mxCell>
                <mxCell id="8tnM9pRMmCKiPTkGgOxN-19" value="ASP.NET Core&#10;Dashboard Control&#10;" style="text;strokeColor=none;fillColor=none;align=center;verticalAlign=top;whiteSpace=wrap;rounded=0;fontColor=#404040;fontFamily='Open Sans Condensed','HelveticaNeue-CondensedBold',Helvetica,'Arial Narrow',Calibri,Arial,'Lucida Grande',sans-serif;fontSize=16;autosize=1;" parent="8tnM9pRMmCKiPTkGgOxN-25" vertex="1">
                    <mxGeometry width="157" height="54" as="geometry"/>
                </mxCell>
                <mxCell id="8tnM9pRMmCKiPTkGgOxN-24" value="&lt;div&gt;Dashboard Builder&lt;/div&gt;&lt;div&gt;&lt;br style=&quot;font-size: 12px&quot;&gt;&lt;/div&gt;" style="text;html=1;strokeColor=none;fillColor=none;align=center;verticalAlign=middle;whiteSpace=wrap;rounded=0;fontFamily=&quot;Segoe UI&quot;,&quot;Helvetica Neue&quot;,Helvetica,Arial,sans-serif;fontSize=14;fontColor=#404040;autosize=1;" parent="8tnM9pRMmCKiPTkGgOxN-25" vertex="1">
                    <mxGeometry x="12" y="55" width="132" height="20" as="geometry"/>
                </mxCell>
                <mxCell id="8tnM9pRMmCKiPTkGgOxN-27" value="" style="group;fontSize=14;" parent="1" vertex="1" connectable="0">
                    <mxGeometry x="110" y="210" width="185" height="97" as="geometry"/>
                </mxCell>
                <mxCell id="8tnM9pRMmCKiPTkGgOxN-28" value="" style="rounded=0;whiteSpace=wrap;html=1;fontColor=#404040;strokeColor=#FF7102;fillColor=#FFF;strokeWidth=3;" parent="8tnM9pRMmCKiPTkGgOxN-27" vertex="1">
                    <mxGeometry width="185" height="97" as="geometry"/>
                </mxCell>
                <mxCell id="8tnM9pRMmCKiPTkGgOxN-30" value="&lt;div style=&quot;font-size: 16px&quot;&gt;&lt;span style=&quot;font-size: 15px&quot;&gt;Blazor Component&lt;/span&gt;&lt;br&gt;&lt;/div&gt;" style="text;html=1;strokeColor=none;fillColor=none;align=center;verticalAlign=top;whiteSpace=wrap;rounded=0;fontColor=#404040;fontFamily='Open Sans Condensed','HelveticaNeue-CondensedBold',Helvetica,'Arial Narrow',Calibri,Arial,'Lucida Grande',sans-serif;fontSize=16;autosize=1;" parent="8tnM9pRMmCKiPTkGgOxN-27" vertex="1">
                    <mxGeometry x="32.5" y="10" width="120" height="20" as="geometry"/>
                </mxCell>
                <mxCell id="8tnM9pRMmCKiPTkGgOxN-31" value="&lt;div&gt;&lt;font style=&quot;font-size: 14px&quot;&gt;DxDashboard&lt;/font&gt;&lt;br&gt;&lt;/div&gt;" style="text;html=1;strokeColor=none;fillColor=none;align=center;verticalAlign=middle;whiteSpace=wrap;rounded=0;fontFamily=&quot;Segoe UI&quot;,&quot;Helvetica Neue&quot;,Helvetica,Arial,sans-serif;fontSize=14;fontColor=#404040;autosize=1;" parent="8tnM9pRMmCKiPTkGgOxN-27" vertex="1">
                    <mxGeometry x="42.5" y="60" width="100" height="20" as="geometry"/>
                </mxCell>
                <mxCell id="8tnM9pRMmCKiPTkGgOxN-33" value="" style="group" parent="1" vertex="1" connectable="0">
                    <mxGeometry x="110" y="370" width="185" height="97" as="geometry"/>
                </mxCell>
                <mxCell id="8tnM9pRMmCKiPTkGgOxN-34" value="" style="rounded=0;whiteSpace=wrap;html=1;fontColor=#404040;strokeColor=#FF7102;fillColor=#FFF;strokeWidth=3;" parent="8tnM9pRMmCKiPTkGgOxN-33" vertex="1">
                    <mxGeometry width="185" height="97" as="geometry"/>
                </mxCell>
                <mxCell id="8tnM9pRMmCKiPTkGgOxN-36" value="&lt;div style=&quot;font-size: 16px&quot;&gt;&lt;div&gt;Angular Component&lt;/div&gt;&lt;/div&gt;" style="text;html=1;strokeColor=none;fillColor=none;align=center;verticalAlign=top;whiteSpace=wrap;rounded=0;fontColor=#404040;fontFamily='Open Sans Condensed','HelveticaNeue-CondensedBold',Helvetica,'Arial Narrow',Calibri,Arial,'Lucida Grande',sans-serif;fontSize=16;autosize=1;" parent="8tnM9pRMmCKiPTkGgOxN-33" vertex="1">
                    <mxGeometry x="22.5" y="10" width="140" height="20" as="geometry"/>
                </mxCell>
                <mxCell id="8tnM9pRMmCKiPTkGgOxN-37" value="&lt;div&gt;dx-dashboard-control&lt;/div&gt;" style="text;html=1;strokeColor=none;fillColor=none;align=center;verticalAlign=middle;whiteSpace=wrap;rounded=0;fontFamily=&quot;Segoe UI&quot;,&quot;Helvetica Neue&quot;,Helvetica,Arial,sans-serif;fontSize=14;fontColor=#404040;autosize=1;" parent="8tnM9pRMmCKiPTkGgOxN-33" vertex="1">
                    <mxGeometry x="17.5" y="60" width="150" height="20" as="geometry"/>
                </mxCell>
                <mxCell id="8tnM9pRMmCKiPTkGgOxN-38" value="" style="group" parent="1" vertex="1" connectable="0">
                    <mxGeometry x="340" y="150" width="234" height="97" as="geometry"/>
                </mxCell>
                <mxCell id="8tnM9pRMmCKiPTkGgOxN-39" value="" style="rounded=0;whiteSpace=wrap;html=1;fontColor=#404040;strokeColor=#FF7102;fillColor=#FFF;strokeWidth=3;" parent="8tnM9pRMmCKiPTkGgOxN-38" vertex="1">
                    <mxGeometry width="185" height="97" as="geometry"/>
                </mxCell>
                <mxCell id="8tnM9pRMmCKiPTkGgOxN-40" value="" style="group" parent="8tnM9pRMmCKiPTkGgOxN-38" vertex="1" connectable="0">
                    <mxGeometry x="15" y="10" width="219" height="75" as="geometry"/>
                </mxCell>
                <mxCell id="8tnM9pRMmCKiPTkGgOxN-41" value="&lt;div style=&quot;font-size: 16px&quot;&gt;&lt;span style=&quot;font-size: 15px&quot;&gt;Dashboard Control for JavaScript Application&lt;/span&gt;&lt;br&gt;&lt;/div&gt;" style="text;html=1;strokeColor=none;fillColor=none;align=center;verticalAlign=top;whiteSpace=wrap;rounded=0;fontColor=#404040;fontFamily='Open Sans Condensed','HelveticaNeue-CondensedBold',Helvetica,'Arial Narrow',Calibri,Arial,'Lucida Grande',sans-serif;fontSize=16;autosize=1;" parent="8tnM9pRMmCKiPTkGgOxN-40" vertex="1">
                    <mxGeometry x="-2" width="162" height="20" as="geometry"/>
                </mxCell>
                <mxCell id="8tnM9pRMmCKiPTkGgOxN-42" value="&lt;div&gt;DashboardControl&lt;br&gt;&lt;/div&gt;" style="text;html=1;strokeColor=none;fillColor=none;align=center;verticalAlign=middle;whiteSpace=wrap;rounded=0;fontFamily=&quot;Segoe UI&quot;,&quot;Helvetica Neue&quot;,Helvetica,Arial,sans-serif;fontSize=14;fontColor=#404040;autosize=1;" parent="8tnM9pRMmCKiPTkGgOxN-40" vertex="1">
                    <mxGeometry x="13" y="49" width="130" height="20" as="geometry"/>
                </mxCell>
                <mxCell id="8tnM9pRMmCKiPTkGgOxN-43" value="" style="group" parent="1" vertex="1" connectable="0">
                    <mxGeometry x="570" y="150" width="185" height="97" as="geometry"/>
                </mxCell>
                <mxCell id="8tnM9pRMmCKiPTkGgOxN-44" value="" style="rounded=0;whiteSpace=wrap;html=1;fontColor=#404040;strokeColor=#FF7102;fillColor=#FFF;strokeWidth=3;" parent="8tnM9pRMmCKiPTkGgOxN-43" vertex="1">
                    <mxGeometry width="185" height="97" as="geometry"/>
                </mxCell>
                <mxCell id="8tnM9pRMmCKiPTkGgOxN-45" value="" style="group" parent="8tnM9pRMmCKiPTkGgOxN-43" vertex="1" connectable="0">
                    <mxGeometry x="15" y="10" width="157" height="75" as="geometry"/>
                </mxCell>
                <mxCell id="8tnM9pRMmCKiPTkGgOxN-47" value="&lt;div&gt;ASPxClientDashboard&lt;br&gt;&lt;/div&gt;" style="text;html=1;strokeColor=none;fillColor=none;align=center;verticalAlign=middle;whiteSpace=wrap;rounded=0;fontFamily=&quot;Segoe UI&quot;,&quot;Helvetica Neue&quot;,Helvetica,Arial,sans-serif;fontSize=14;fontColor=#404040;autosize=1;" parent="8tnM9pRMmCKiPTkGgOxN-45" vertex="1">
                    <mxGeometry x="3" y="27" width="150" height="20" as="geometry"/>
                </mxCell>
                <mxCell id="8tnM9pRMmCKiPTkGgOxN-48" value="" style="group" parent="1" vertex="1" connectable="0">
                    <mxGeometry x="800" y="90" width="185" height="97" as="geometry"/>
                </mxCell>
                <mxCell id="8tnM9pRMmCKiPTkGgOxN-49" value="" style="rounded=0;whiteSpace=wrap;html=1;fontColor=#404040;strokeColor=#FF7102;fillColor=#FFF;strokeWidth=3;" parent="8tnM9pRMmCKiPTkGgOxN-48" vertex="1">
                    <mxGeometry width="185" height="97" as="geometry"/>
                </mxCell>
                <mxCell id="8tnM9pRMmCKiPTkGgOxN-50" value="" style="group" parent="8tnM9pRMmCKiPTkGgOxN-48" vertex="1" connectable="0">
                    <mxGeometry x="15" y="10" width="157" height="75" as="geometry"/>
                </mxCell>
                <mxCell id="8tnM9pRMmCKiPTkGgOxN-52" value="&lt;div&gt;ASPxDashboard&lt;br&gt;&lt;/div&gt;" style="text;html=1;strokeColor=none;fillColor=none;align=center;verticalAlign=middle;whiteSpace=wrap;rounded=0;fontFamily=&quot;Segoe UI&quot;,&quot;Helvetica Neue&quot;,Helvetica,Arial,sans-serif;fontSize=14;fontColor=#404040;autosize=1;" parent="8tnM9pRMmCKiPTkGgOxN-50" vertex="1">
                    <mxGeometry x="23.5" y="55" width="110" height="20" as="geometry"/>
                </mxCell>
                <mxCell id="8tnM9pRMmCKiPTkGgOxN-53" value="" style="group" parent="1" vertex="1" connectable="0">
                    <mxGeometry x="800" y="210" width="185" height="97" as="geometry"/>
                </mxCell>
                <mxCell id="8tnM9pRMmCKiPTkGgOxN-54" value="" style="rounded=0;whiteSpace=wrap;html=1;fontColor=#404040;strokeColor=#FF7102;fillColor=#FFF;strokeWidth=3;" parent="8tnM9pRMmCKiPTkGgOxN-53" vertex="1">
                    <mxGeometry width="185" height="97" as="geometry"/>
                </mxCell>
                <mxCell id="8tnM9pRMmCKiPTkGgOxN-57" value="&lt;div&gt;&lt;div&gt;MVCsDashboard&lt;/div&gt;&lt;/div&gt;" style="text;html=1;strokeColor=none;fillColor=none;align=center;verticalAlign=middle;whiteSpace=wrap;rounded=0;fontFamily=&quot;Segoe UI&quot;,&quot;Helvetica Neue&quot;,Helvetica,Arial,sans-serif;fontSize=14;fontColor=#404040;autosize=1;" parent="8tnM9pRMmCKiPTkGgOxN-53" vertex="1">
                    <mxGeometry x="33" y="65" width="120" height="20" as="geometry"/>
                </mxCell>
                <mxCell id="8tnM9pRMmCKiPTkGgOxN-56" value="&lt;div style=&quot;font-size: 16px&quot;&gt;&lt;div&gt;ASP.NET MVC&lt;/div&gt;&lt;div&gt;Dashboard Extension&lt;/div&gt;&lt;/div&gt;" style="text;html=1;strokeColor=none;fillColor=none;align=center;verticalAlign=top;whiteSpace=wrap;rounded=0;fontColor=#404040;fontFamily='Open Sans Condensed','HelveticaNeue-CondensedBold',Helvetica,'Arial Narrow',Calibri,Arial,'Lucida Grande',sans-serif;fontSize=16;autosize=1;" parent="8tnM9pRMmCKiPTkGgOxN-53" vertex="1">
                    <mxGeometry x="17.5" width="150" height="40" as="geometry"/>
                </mxCell>
                <mxCell id="8tnM9pRMmCKiPTkGgOxN-58" value="" style="group" parent="1" vertex="1" connectable="0">
                    <mxGeometry x="340" y="370" width="185" height="97" as="geometry"/>
                </mxCell>
                <mxCell id="8tnM9pRMmCKiPTkGgOxN-59" value="" style="rounded=0;whiteSpace=wrap;html=1;fontColor=#404040;strokeColor=#FF7102;fillColor=#FFF;strokeWidth=3;" parent="8tnM9pRMmCKiPTkGgOxN-58" vertex="1">
                    <mxGeometry width="185" height="97" as="geometry"/>
                </mxCell>
                <mxCell id="8tnM9pRMmCKiPTkGgOxN-60" value="" style="group" parent="8tnM9pRMmCKiPTkGgOxN-58" vertex="1" connectable="0">
                    <mxGeometry x="15" y="10" width="157" height="75" as="geometry"/>
                </mxCell>
                <mxCell id="8tnM9pRMmCKiPTkGgOxN-62" value="&lt;div&gt;DashboardControl&lt;/div&gt;" style="text;html=1;strokeColor=none;fillColor=none;align=center;verticalAlign=middle;whiteSpace=wrap;rounded=0;fontFamily=&quot;Segoe UI&quot;,&quot;Helvetica Neue&quot;,Helvetica,Arial,sans-serif;fontSize=14;fontColor=#404040;autosize=1;" parent="8tnM9pRMmCKiPTkGgOxN-60" vertex="1">
                    <mxGeometry x="14" y="50" width="130" height="20" as="geometry"/>
                </mxCell>
                <mxCell id="8tnM9pRMmCKiPTkGgOxN-61" value="&lt;div style=&quot;font-size: 16px&quot;&gt;React Component&lt;/div&gt;" style="text;html=1;strokeColor=none;fillColor=none;align=center;verticalAlign=top;whiteSpace=wrap;rounded=0;fontColor=#404040;fontFamily='Open Sans Condensed','HelveticaNeue-CondensedBold',Helvetica,'Arial Narrow',Calibri,Arial,'Lucida Grande',sans-serif;fontSize=16;autosize=1;" parent="8tnM9pRMmCKiPTkGgOxN-58" vertex="1">
                    <mxGeometry x="27.5" y="10" width="130" height="20" as="geometry"/>
                </mxCell>
                <mxCell id="8tnM9pRMmCKiPTkGgOxN-63" value="" style="group" parent="1" vertex="1" connectable="0">
                    <mxGeometry x="560" y="370" width="185" height="97" as="geometry"/>
                </mxCell>
                <mxCell id="8tnM9pRMmCKiPTkGgOxN-64" value="" style="rounded=0;whiteSpace=wrap;html=1;fontColor=#404040;strokeColor=#FF7102;fillColor=#FFF;strokeWidth=3;" parent="8tnM9pRMmCKiPTkGgOxN-63" vertex="1">
                    <mxGeometry width="185" height="97" as="geometry"/>
                </mxCell>
                <mxCell id="8tnM9pRMmCKiPTkGgOxN-66" value="&lt;div style=&quot;font-size: 16px&quot;&gt;Vue Component&lt;/div&gt;" style="text;html=1;strokeColor=none;fillColor=none;align=center;verticalAlign=top;whiteSpace=wrap;rounded=0;fontColor=#404040;fontFamily='Open Sans Condensed','HelveticaNeue-CondensedBold',Helvetica,'Arial Narrow',Calibri,Arial,'Lucida Grande',sans-serif;fontSize=16;autosize=1;" parent="8tnM9pRMmCKiPTkGgOxN-63" vertex="1">
                    <mxGeometry x="33" y="10" width="120" height="20" as="geometry"/>
                </mxCell>
                <mxCell id="8tnM9pRMmCKiPTkGgOxN-67" value="&lt;div&gt;DxDashboardControl&lt;/div&gt;" style="text;html=1;strokeColor=none;fillColor=none;align=center;verticalAlign=middle;whiteSpace=wrap;rounded=0;fontFamily=&quot;Segoe UI&quot;,&quot;Helvetica Neue&quot;,Helvetica,Arial,sans-serif;fontSize=14;fontColor=#404040;autosize=1;" parent="8tnM9pRMmCKiPTkGgOxN-63" vertex="1">
                    <mxGeometry x="18" y="60" width="150" height="20" as="geometry"/>
                </mxCell>
                <mxCell id="8tnM9pRMmCKiPTkGgOxN-68" style="edgeStyle=orthogonalEdgeStyle;rounded=0;orthogonalLoop=1;jettySize=auto;html=1;entryX=1;entryY=0.5;entryDx=0;entryDy=0;fontFamily=&quot;Segoe UI&quot;,&quot;Helvetica Neue&quot;,Helvetica,Arial,sans-serif;fontSize=16;fontColor=#404040;strokeColor=#9C9C9C;strokeWidth=2;" parent="1" source="8tnM9pRMmCKiPTkGgOxN-39" target="8tnM9pRMmCKiPTkGgOxN-18" edge="1">
                    <mxGeometry relative="1" as="geometry"/>
                </mxCell>
                <mxCell id="8tnM9pRMmCKiPTkGgOxN-69" style="edgeStyle=orthogonalEdgeStyle;rounded=0;orthogonalLoop=1;jettySize=auto;html=1;entryX=1;entryY=0.5;entryDx=0;entryDy=0;fontFamily=&quot;Segoe UI&quot;,&quot;Helvetica Neue&quot;,Helvetica,Arial,sans-serif;fontSize=16;fontColor=#404040;strokeColor=#9C9C9C;strokeWidth=2;" parent="1" source="8tnM9pRMmCKiPTkGgOxN-39" target="8tnM9pRMmCKiPTkGgOxN-28" edge="1">
                    <mxGeometry relative="1" as="geometry"/>
                </mxCell>
                <mxCell id="8tnM9pRMmCKiPTkGgOxN-70" style="edgeStyle=orthogonalEdgeStyle;rounded=0;orthogonalLoop=1;jettySize=auto;html=1;entryX=0;entryY=0.5;entryDx=0;entryDy=0;fontFamily=&quot;Segoe UI&quot;,&quot;Helvetica Neue&quot;,Helvetica,Arial,sans-serif;fontSize=16;fontColor=#404040;strokeColor=#9C9C9C;strokeWidth=2;" parent="1" source="8tnM9pRMmCKiPTkGgOxN-39" target="8tnM9pRMmCKiPTkGgOxN-44" edge="1">
                    <mxGeometry relative="1" as="geometry"/>
                </mxCell>
                <mxCell id="8tnM9pRMmCKiPTkGgOxN-71" style="edgeStyle=orthogonalEdgeStyle;rounded=0;orthogonalLoop=1;jettySize=auto;html=1;fontFamily=&quot;Segoe UI&quot;,&quot;Helvetica Neue&quot;,Helvetica,Arial,sans-serif;fontSize=16;fontColor=#404040;strokeColor=#9C9C9C;strokeWidth=2;" parent="1" source="8tnM9pRMmCKiPTkGgOxN-44" target="8tnM9pRMmCKiPTkGgOxN-54" edge="1">
                    <mxGeometry relative="1" as="geometry"/>
                </mxCell>
                <mxCell id="8tnM9pRMmCKiPTkGgOxN-72" style="edgeStyle=orthogonalEdgeStyle;rounded=0;orthogonalLoop=1;jettySize=auto;html=1;fontFamily=&quot;Segoe UI&quot;,&quot;Helvetica Neue&quot;,Helvetica,Arial,sans-serif;fontSize=16;fontColor=#404040;strokeColor=#9C9C9C;strokeWidth=2;" parent="1" source="8tnM9pRMmCKiPTkGgOxN-44" target="8tnM9pRMmCKiPTkGgOxN-49" edge="1">
                    <mxGeometry relative="1" as="geometry"/>
                </mxCell>
                <mxCell id="8tnM9pRMmCKiPTkGgOxN-73" style="edgeStyle=orthogonalEdgeStyle;rounded=0;orthogonalLoop=1;jettySize=auto;html=1;entryX=0.5;entryY=0;entryDx=0;entryDy=0;fontFamily=&quot;Segoe UI&quot;,&quot;Helvetica Neue&quot;,Helvetica,Arial,sans-serif;fontSize=16;fontColor=#404040;strokeColor=#9C9C9C;strokeWidth=2;" parent="1" source="8tnM9pRMmCKiPTkGgOxN-39" target="8tnM9pRMmCKiPTkGgOxN-59" edge="1">
                    <mxGeometry relative="1" as="geometry"/>
                </mxCell>
                <mxCell id="8tnM9pRMmCKiPTkGgOxN-75" style="edgeStyle=orthogonalEdgeStyle;rounded=0;orthogonalLoop=1;jettySize=auto;html=1;entryX=0.5;entryY=0;entryDx=0;entryDy=0;fontFamily=&quot;Segoe UI&quot;,&quot;Helvetica Neue&quot;,Helvetica,Arial,sans-serif;fontSize=16;fontColor=#404040;strokeColor=#9C9C9C;strokeWidth=2;" parent="1" source="8tnM9pRMmCKiPTkGgOxN-39" target="8tnM9pRMmCKiPTkGgOxN-64" edge="1">
                    <mxGeometry relative="1" as="geometry">
                        <Array as="points">
                            <mxPoint x="450" y="330"/>
                            <mxPoint x="653" y="330"/>
                        </Array>
                    </mxGeometry>
                </mxCell>
                <mxCell id="8tnM9pRMmCKiPTkGgOxN-78" style="edgeStyle=orthogonalEdgeStyle;rounded=0;orthogonalLoop=1;jettySize=auto;html=1;entryX=0.5;entryY=0;entryDx=0;entryDy=0;fontFamily=&quot;Segoe UI&quot;,&quot;Helvetica Neue&quot;,Helvetica,Arial,sans-serif;fontSize=16;fontColor=#404040;strokeColor=#9C9C9C;strokeWidth=2;" parent="1" source="8tnM9pRMmCKiPTkGgOxN-39" target="8tnM9pRMmCKiPTkGgOxN-34" edge="1">
                    <mxGeometry relative="1" as="geometry">
                        <Array as="points">
                            <mxPoint x="414" y="330"/>
                            <mxPoint x="202" y="330"/>
                        </Array>
                    </mxGeometry>
                </mxCell>
                <mxCell id="8tnM9pRMmCKiPTkGgOxN-51" value="&lt;div style=&quot;font-size: 16px&quot;&gt;&lt;div&gt;ASP.NET Web Forms&lt;/div&gt;&lt;div&gt;Dashboard Control&lt;/div&gt;&lt;/div&gt;" style="text;html=1;strokeColor=none;fillColor=none;align=center;verticalAlign=top;whiteSpace=wrap;rounded=0;fontColor=#404040;fontFamily='Open Sans Condensed','HelveticaNeue-CondensedBold',Helvetica,'Arial Narrow',Calibri,Arial,'Lucida Grande',sans-serif;fontSize=16;autosize=1;" parent="1" vertex="1">
                    <mxGeometry x="816" y="90" width="153" height="40" as="geometry"/>
                </mxCell>
            </root>
        </mxGraphModel>
    </diagram>
</mxfile>
